<svg xmlns="http://www.w3.org/2000/svg" viewBox="0 0 1000 180">
<defs>
  <filter id="glow">
    <feGaussianBlur stdDeviation="5" result="b"/>
    <feMerge><feMergeNode in="b"/><feMergeNode in="SourceGraphic"/></feMerge>
  </filter>
  <clipPath id="clip"><rect width="1000" height="180"/></clipPath>
<style>
  @keyframes fall { from { transform: translateY(-234px); } to { transform: translateY(180px); } }
  .c0 { animation: fall 2.4s linear 0.0s infinite; }
  .c1 { animation: fall 1.9s linear 0.6s infinite; }
  .c2 { animation: fall 3.2s linear 0.2s infinite; }
  .c3 { animation: fall 2.7s linear 1.1s infinite; }
  .c4 { animation: fall 2.0s linear 0.4s infinite; }
  .c5 { animation: fall 3.5s linear 0.0s infinite; }
  .c6 { animation: fall 1.8s linear 1.9s infinite; }
  .c7 { animation: fall 2.6s linear 0.8s infinite; }
  .c8 { animation: fall 3.1s linear 0.3s infinite; }
  .c9 { animation: fall 2.2s linear 1.4s infinite; }
  .c10 { animation: fall 1.9s linear 0.1s infinite; }
  .c11 { animation: fall 2.9s linear 1.0s infinite; }
  .c12 { animation: fall 3.3s linear 0.5s infinite; }
  .c13 { animation: fall 2.1s linear 0.7s infinite; }
  .c14 { animation: fall 2.5s linear 1.3s infinite; }
  .c15 { animation: fall 3.4s linear 0.2s infinite; }
  .c16 { animation: fall 2.0s linear 1.6s infinite; }
  .c17 { animation: fall 1.9s linear 0.4s infinite; }
  .c18 { animation: fall 2.8s linear 0.9s infinite; }
  .c19 { animation: fall 3.0s linear 0.1s infinite; }
  .c20 { animation: fall 2.3s linear 1.2s infinite; }
  .c21 { animation: fall 2.1s linear 0.7s infinite; }
  .c22 { animation: fall 3.1s linear 0.3s infinite; }
  .c23 { animation: fall 2.2s linear 1.5s infinite; }
</style>
</defs>
<rect width="1000" height="180" fill="#000"/>  
<g clip-path="url(#clip)">
  <g class="c0" font-family="'Courier New',monospace" font-size="13" text-anchor="middle">
    <text x="20" y="0" fill="#e0ffe0">ア</text>
    <text x="20" y="18" fill="#55ff55">カ</text>
    <text x="20" y="36" fill="#00dd00">サ</text>
    <text x="20" y="54" fill="#00dd00">タ</text>
    <text x="20" y="72" fill="#00dd00">ナ</text>
    <text x="20" y="90" fill="#009900">ハ</text>
    <text x="20" y="108" fill="#009900">マ</text>
    <text x="20" y="126" fill="#009900">ヤ</text>
    <text x="20" y="144" fill="#009900">ラ</text>
    <text x="20" y="162" fill="#005500">ン</text>
    <text x="20" y="180" fill="#005500" opacity="0.55">0</text>
    <text x="20" y="198" fill="#005500" opacity="0.55">1</text>
    <text x="20" y="216" fill="#005500" opacity="0.55">2</text>
  </g>
  <g class="c1" font-family="'Courier New',monospace" font-size="13" text-anchor="middle">
    <text x="62" y="0" fill="#e0ffe0">イ</text>
    <text x="62" y="18" fill="#55ff55">キ</text>
    <text x="62" y="36" fill="#00dd00">シ</text>
    <text x="62" y="54" fill="#00dd00">チ</text>
    <text x="62" y="72" fill="#00dd00">ニ</text>
    <text x="62" y="90" fill="#009900">ヒ</text>
    <text x="62" y="108" fill="#009900">ミ</text>
    <text x="62" y="126" fill="#009900">リ</text>
    <text x="62" y="144" fill="#009900">ヲ</text>
    <text x="62" y="162" fill="#005500">5</text>
    <text x="62" y="180" fill="#005500" opacity="0.55">6</text>
    <text x="62" y="198" fill="#005500" opacity="0.55">7</text>
    <text x="62" y="216" fill="#005500" opacity="0.55">テ</text>
  </g>
  <g class="c2" font-family="'Courier New',monospace" font-size="13" text-anchor="middle">
    <text x="104" y="0" fill="#e0ffe0">ウ</text>
    <text x="104" y="18" fill="#55ff55">ク</text>
    <text x="104" y="36" fill="#00dd00">ス</text>
    <text x="104" y="54" fill="#00dd00">ツ</text>
    <text x="104" y="72" fill="#00dd00">ヌ</text>
    <text x="104" y="90" fill="#009900">フ</text>
    <text x="104" y="108" fill="#009900">ム</text>
    <text x="104" y="126" fill="#009900">ロ</text>
    <text x="104" y="144" fill="#009900">3</text>
    <text x="104" y="162" fill="#005500">7</text>
    <text x="104" y="180" fill="#005500" opacity="0.55">コ</text>
    <text x="104" y="198" fill="#005500" opacity="0.55">セ</text>
    <text x="104" y="216" fill="#005500" opacity="0.55">ノ</text>
  </g>
  <g class="c3" font-family="'Courier New',monospace" font-size="13" text-anchor="middle">
    <text x="146" y="0" fill="#e0ffe0">エ</text>
    <text x="146" y="18" fill="#55ff55">ケ</text>
    <text x="146" y="36" fill="#00dd00">ネ</text>
    <text x="146" y="54" fill="#00dd00">ヘ</text>
    <text x="146" y="72" fill="#00dd00">メ</text>
    <text x="146" y="90" fill="#009900">レ</text>
    <text x="146" y="108" fill="#009900">2</text>
    <text x="146" y="126" fill="#009900">5</text>
    <text x="146" y="144" fill="#009900">8</text>
    <text x="146" y="162" fill="#005500">サ</text>
    <text x="146" y="180" fill="#005500" opacity="0.55">ナ</text>
    <text x="146" y="198" fill="#005500" opacity="0.55">ワ</text>
    <text x="146" y="216" fill="#005500" opacity="0.55">ア</text>
  </g>
  <g class="c4" font-family="'Courier New',monospace" font-size="13" text-anchor="middle">
    <text x="188" y="0" fill="#e0ffe0">オ</text>
    <text x="188" y="18" fill="#55ff55">コ</text>
    <text x="188" y="36" fill="#00dd00">ソ</text>
    <text x="188" y="54" fill="#00dd00">ト</text>
    <text x="188" y="72" fill="#00dd00">ノ</text>
    <text x="188" y="90" fill="#009900">ホ</text>
    <text x="188" y="108" fill="#009900">モ</text>
    <text x="188" y="126" fill="#009900">ヨ</text>
    <text x="188" y="144" fill="#009900">4</text>
    <text x="188" y="162" fill="#005500">6</text>
    <text x="188" y="180" fill="#005500" opacity="0.55">9</text>
    <text x="188" y="198" fill="#005500" opacity="0.55">キ</text>
    <text x="188" y="216" fill="#005500" opacity="0.55">ス</text>
  </g>
  <g class="c5" font-family="'Courier New',monospace" font-size="13" text-anchor="middle">
    <text x="230" y="0" fill="#e0ffe0">ア</text>
    <text x="230" y="18" fill="#55ff55">カ</text>
    <text x="230" y="36" fill="#00dd00">サ</text>
    <text x="230" y="54" fill="#00dd00">タ</text>
    <text x="230" y="72" fill="#00dd00">ナ</text>
    <text x="230" y="90" fill="#009900">ハ</text>
    <text x="230" y="108" fill="#009900">マ</text>
    <text x="230" y="126" fill="#009900">ヤ</text>
    <text x="230" y="144" fill="#009900">ラ</text>
    <text x="230" y="162" fill="#005500">ン</text>
    <text x="230" y="180" fill="#005500" opacity="0.55">0</text>
    <text x="230" y="198" fill="#005500" opacity="0.55">1</text>
    <text x="230" y="216" fill="#005500" opacity="0.55">2</text>
  </g>
  <g class="c6" font-family="'Courier New',monospace" font-size="13" text-anchor="middle">
    <text x="272" y="0" fill="#e0ffe0">イ</text>
    <text x="272" y="18" fill="#55ff55">キ</text>
    <text x="272" y="36" fill="#00dd00">シ</text>
    <text x="272" y="54" fill="#00dd00">チ</text>
    <text x="272" y="72" fill="#00dd00">ニ</text>
    <text x="272" y="90" fill="#009900">ヒ</text>
    <text x="272" y="108" fill="#009900">ミ</text>
    <text x="272" y="126" fill="#009900">リ</text>
    <text x="272" y="144" fill="#009900">ヲ</text>
    <text x="272" y="162" fill="#005500">5</text>
    <text x="272" y="180" fill="#005500" opacity="0.55">6</text>
    <text x="272" y="198" fill="#005500" opacity="0.55">7</text>
    <text x="272" y="216" fill="#005500" opacity="0.55">テ</text>
  </g>
  <g class="c7" font-family="'Courier New',monospace" font-size="13" text-anchor="middle">
    <text x="314" y="0" fill="#e0ffe0">ウ</text>
    <text x="314" y="18" fill="#55ff55">ク</text>
    <text x="314" y="36" fill="#00dd00">ス</text>
    <text x="314" y="54" fill="#00dd00">ツ</text>
    <text x="314" y="72" fill="#00dd00">ヌ</text>
    <text x="314" y="90" fill="#009900">フ</text>
    <text x="314" y="108" fill="#009900">ム</text>
    <text x="314" y="126" fill="#009900">ロ</text>
    <text x="314" y="144" fill="#009900">3</text>
    <text x="314" y="162" fill="#005500">7</text>
    <text x="314" y="180" fill="#005500" opacity="0.55">コ</text>
    <text x="314" y="198" fill="#005500" opacity="0.55">セ</text>
    <text x="314" y="216" fill="#005500" opacity="0.55">ノ</text>
  </g>
  <g class="c8" font-family="'Courier New',monospace" font-size="13" text-anchor="middle">
    <text x="356" y="0" fill="#e0ffe0">エ</text>
    <text x="356" y="18" fill="#55ff55">ケ</text>
    <text x="356" y="36" fill="#00dd00">ネ</text>
    <text x="356" y="54" fill="#00dd00">ヘ</text>
    <text x="356" y="72" fill="#00dd00">メ</text>
    <text x="356" y="90" fill="#009900">レ</text>
    <text x="356" y="108" fill="#009900">2</text>
    <text x="356" y="126" fill="#009900">5</text>
    <text x="356" y="144" fill="#009900">8</text>
    <text x="356" y="162" fill="#005500">サ</text>
    <text x="356" y="180" fill="#005500" opacity="0.55">ナ</text>
    <text x="356" y="198" fill="#005500" opacity="0.55">ワ</text>
    <text x="356" y="216" fill="#005500" opacity="0.55">ア</text>
  </g>
  <g class="c9" font-family="'Courier New',monospace" font-size="13" text-anchor="middle">
    <text x="398" y="0" fill="#e0ffe0">オ</text>
    <text x="398" y="18" fill="#55ff55">コ</text>
    <text x="398" y="36" fill="#00dd00">ソ</text>
    <text x="398" y="54" fill="#00dd00">ト</text>
    <text x="398" y="72" fill="#00dd00">ノ</text>
    <text x="398" y="90" fill="#009900">ホ</text>
    <text x="398" y="108" fill="#009900">モ</text>
    <text x="398" y="126" fill="#009900">ヨ</text>
    <text x="398" y="144" fill="#009900">4</text>
    <text x="398" y="162" fill="#005500">6</text>
    <text x="398" y="180" fill="#005500" opacity="0.55">9</text>
    <text x="398" y="198" fill="#005500" opacity="0.55">キ</text>
    <text x="398" y="216" fill="#005500" opacity="0.55">ス</text>
  </g>
  <g class="c10" font-family="'Courier New',monospace" font-size="13" text-anchor="middle">
    <text x="440" y="0" fill="#e0ffe0">ア</text>
    <text x="440" y="18" fill="#55ff55">カ</text>
    <text x="440" y="36" fill="#00dd00">サ</text>
    <text x="440" y="54" fill="#00dd00">タ</text>
    <text x="440" y="72" fill="#00dd00">ナ</text>
    <text x="440" y="90" fill="#009900">ハ</text>
    <text x="440" y="108" fill="#009900">マ</text>
    <text x="440" y="126" fill="#009900">ヤ</text>
    <text x="440" y="144" fill="#009900">ラ</text>
    <text x="440" y="162" fill="#005500">ン</text>
    <text x="440" y="180" fill="#005500" opacity="0.55">0</text>
    <text x="440" y="198" fill="#005500" opacity="0.55">1</text>
    <text x="440" y="216" fill="#005500" opacity="0.55">2</text>
  </g>
  <g class="c11" font-family="'Courier New',monospace" font-size="13" text-anchor="middle">
    <text x="482" y="0" fill="#e0ffe0">イ</text>
    <text x="482" y="18" fill="#55ff55">キ</text>
    <text x="482" y="36" fill="#00dd00">シ</text>
    <text x="482" y="54" fill="#00dd00">チ</text>
    <text x="482" y="72" fill="#00dd00">ニ</text>
    <text x="482" y="90" fill="#009900">ヒ</text>
    <text x="482" y="108" fill="#009900">ミ</text>
    <text x="482" y="126" fill="#009900">リ</text>
    <text x="482" y="144" fill="#009900">ヲ</text>
    <text x="482" y="162" fill="#005500">5</text>
    <text x="482" y="180" fill="#005500" opacity="0.55">6</text>
    <text x="482" y="198" fill="#005500" opacity="0.55">7</text>
    <text x="482" y="216" fill="#005500" opacity="0.55">テ</text>
  </g>
  <g class="c12" font-family="'Courier New',monospace" font-size="13" text-anchor="middle">
    <text x="524" y="0" fill="#e0ffe0">ウ</text>
    <text x="524" y="18" fill="#55ff55">ク</text>
    <text x="524" y="36" fill="#00dd00">ス</text>
    <text x="524" y="54" fill="#00dd00">ツ</text>
    <text x="524" y="72" fill="#00dd00">ヌ</text>
    <text x="524" y="90" fill="#009900">フ</text>
    <text x="524" y="108" fill="#009900">ム</text>
    <text x="524" y="126" fill="#009900">ロ</text>
    <text x="524" y="144" fill="#009900">3</text>
    <text x="524" y="162" fill="#005500">7</text>
    <text x="524" y="180" fill="#005500" opacity="0.55">コ</text>
    <text x="524" y="198" fill="#005500" opacity="0.55">セ</text>
    <text x="524" y="216" fill="#005500" opacity="0.55">ノ</text>
  </g>
  <g class="c13" font-family="'Courier New',monospace" font-size="13" text-anchor="middle">
    <text x="566" y="0" fill="#e0ffe0">エ</text>
    <text x="566" y="18" fill="#55ff55">ケ</text>
    <text x="566" y="36" fill="#00dd00">ネ</text>
    <text x="566" y="54" fill="#00dd00">ヘ</text>
    <text x="566" y="72" fill="#00dd00">メ</text>
    <text x="566" y="90" fill="#009900">レ</text>
    <text x="566" y="108" fill="#009900">2</text>
    <text x="566" y="126" fill="#009900">5</text>
    <text x="566" y="144" fill="#009900">8</text>
    <text x="566" y="162" fill="#005500">サ</text>
    <text x="566" y="180" fill="#005500" opacity="0.55">ナ</text>
    <text x="566" y="198" fill="#005500" opacity="0.55">ワ</text>
    <text x="566" y="216" fill="#005500" opacity="0.55">ア</text>
  </g>
  <g class="c14" font-family="'Courier New',monospace" font-size="13" text-anchor="middle">
    <text x="608" y="0" fill="#e0ffe0">オ</text>
    <text x="608" y="18" fill="#55ff55">コ</text>
    <text x="608" y="36" fill="#00dd00">ソ</text>
    <text x="608" y="54" fill="#00dd00">ト</text>
    <text x="608" y="72" fill="#00dd00">ノ</text>
    <text x="608" y="90" fill="#009900">ホ</text>
    <text x="608" y="108" fill="#009900">モ</text>
    <text x="608" y="126" fill="#009900">ヨ</text>
    <text x="608" y="144" fill="#009900">4</text>
    <text x="608" y="162" fill="#005500">6</text>
    <text x="608" y="180" fill="#005500" opacity="0.55">9</text>
    <text x="608" y="198" fill="#005500" opacity="0.55">キ</text>
    <text x="608" y="216" fill="#005500" opacity="0.55">ス</text>
  </g>
  <g class="c15" font-family="'Courier New',monospace" font-size="13" text-anchor="middle">
    <text x="650" y="0" fill="#e0ffe0">ア</text>
    <text x="650" y="18" fill="#55ff55">カ</text>
    <text x="650" y="36" fill="#00dd00">サ</text>
    <text x="650" y="54" fill="#00dd00">タ</text>
    <text x="650" y="72" fill="#00dd00">ナ</text>
    <text x="650" y="90" fill="#009900">ハ</text>
    <text x="650" y="108" fill="#009900">マ</text>
    <text x="650" y="126" fill="#009900">ヤ</text>
    <text x="650" y="144" fill="#009900">ラ</text>
    <text x="650" y="162" fill="#005500">ン</text>
    <text x="650" y="180" fill="#005500" opacity="0.55">0</text>
    <text x="650" y="198" fill="#005500" opacity="0.55">1</text>
    <text x="650" y="216" fill="#005500" opacity="0.55">2</text>
  </g>
  <g class="c16" font-family="'Courier New',monospace" font-size="13" text-anchor="middle">
    <text x="692" y="0" fill="#e0ffe0">イ</text>
    <text x="692" y="18" fill="#55ff55">キ</text>
    <text x="692" y="36" fill="#00dd00">シ</text>
    <text x="692" y="54" fill="#00dd00">チ</text>
    <text x="692" y="72" fill="#00dd00">ニ</text>
    <text x="692" y="90" fill="#009900">ヒ</text>
    <text x="692" y="108" fill="#009900">ミ</text>
    <text x="692" y="126" fill="#009900">リ</text>
    <text x="692" y="144" fill="#009900">ヲ</text>
    <text x="692" y="162" fill="#005500">5</text>
    <text x="692" y="180" fill="#005500" opacity="0.55">6</text>
    <text x="692" y="198" fill="#005500" opacity="0.55">7</text>
    <text x="692" y="216" fill="#005500" opacity="0.55">テ</text>
  </g>
  <g class="c17" font-family="'Courier New',monospace" font-size="13" text-anchor="middle">
    <text x="734" y="0" fill="#e0ffe0">ウ</text>
    <text x="734" y="18" fill="#55ff55">ク</text>
    <text x="734" y="36" fill="#00dd00">ス</text>
    <text x="734" y="54" fill="#00dd00">ツ</text>
    <text x="734" y="72" fill="#00dd00">ヌ</text>
    <text x="734" y="90" fill="#009900">フ</text>
    <text x="734" y="108" fill="#009900">ム</text>
    <text x="734" y="126" fill="#009900">ロ</text>
    <text x="734" y="144" fill="#009900">3</text>
    <text x="734" y="162" fill="#005500">7</text>
    <text x="734" y="180" fill="#005500" opacity="0.55">コ</text>
    <text x="734" y="198" fill="#005500" opacity="0.55">セ</text>
    <text x="734" y="216" fill="#005500" opacity="0.55">ノ</text>
  </g>
  <g class="c18" font-family="'Courier New',monospace" font-size="13" text-anchor="middle">
    <text x="776" y="0" fill="#e0ffe0">エ</text>
    <text x="776" y="18" fill="#55ff55">ケ</text>
    <text x="776" y="36" fill="#00dd00">ネ</text>
    <text x="776" y="54" fill="#00dd00">ヘ</text>
    <text x="776" y="72" fill="#00dd00">メ</text>
    <text x="776" y="90" fill="#009900">レ</text>
    <text x="776" y="108" fill="#009900">2</text>
    <text x="776" y="126" fill="#009900">5</text>
    <text x="776" y="144" fill="#009900">8</text>
    <text x="776" y="162" fill="#005500">サ</text>
    <text x="776" y="180" fill="#005500" opacity="0.55">ナ</text>
    <text x="776" y="198" fill="#005500" opacity="0.55">ワ</text>
    <text x="776" y="216" fill="#005500" opacity="0.55">ア</text>
  </g>
  <g class="c19" font-family="'Courier New',monospace" font-size="13" text-anchor="middle">
    <text x="818" y="0" fill="#e0ffe0">オ</text>
    <text x="818" y="18" fill="#55ff55">コ</text>
    <text x="818" y="36" fill="#00dd00">ソ</text>
    <text x="818" y="54" fill="#00dd00">ト</text>
    <text x="818" y="72" fill="#00dd00">ノ</text>
    <text x="818" y="90" fill="#009900">ホ</text>
    <text x="818" y="108" fill="#009900">モ</text>
    <text x="818" y="126" fill="#009900">ヨ</text>
    <text x="818" y="144" fill="#009900">4</text>
    <text x="818" y="162" fill="#005500">6</text>
    <text x="818" y="180" fill="#005500" opacity="0.55">9</text>
    <text x="818" y="198" fill="#005500" opacity="0.55">キ</text>
    <text x="818" y="216" fill="#005500" opacity="0.55">ス</text>
  </g>
  <g class="c20" font-family="'Courier New',monospace" font-size="13" text-anchor="middle">
    <text x="860" y="0" fill="#e0ffe0">ア</text>
    <text x="860" y="18" fill="#55ff55">カ</text>
    <text x="860" y="36" fill="#00dd00">サ</text>
    <text x="860" y="54" fill="#00dd00">タ</text>
    <text x="860" y="72" fill="#00dd00">ナ</text>
    <text x="860" y="90" fill="#009900">ハ</text>
    <text x="860" y="108" fill="#009900">マ</text>
    <text x="860" y="126" fill="#009900">ヤ</text>
    <text x="860" y="144" fill="#009900">ラ</text>
    <text x="860" y="162" fill="#005500">ン</text>
    <text x="860" y="180" fill="#005500" opacity="0.55">0</text>
    <text x="860" y="198" fill="#005500" opacity="0.55">1</text>
    <text x="860" y="216" fill="#005500" opacity="0.55">2</text>
  </g>
  <g class="c21" font-family="'Courier New',monospace" font-size="13" text-anchor="middle">
    <text x="902" y="0" fill="#e0ffe0">イ</text>
    <text x="902" y="18" fill="#55ff55">キ</text>
    <text x="902" y="36" fill="#00dd00">シ</text>
    <text x="902" y="54" fill="#00dd00">チ</text>
    <text x="902" y="72" fill="#00dd00">ニ</text>
    <text x="902" y="90" fill="#009900">ヒ</text>
    <text x="902" y="108" fill="#009900">ミ</text>
    <text x="902" y="126" fill="#009900">リ</text>
    <text x="902" y="144" fill="#009900">ヲ</text>
    <text x="902" y="162" fill="#005500">5</text>
    <text x="902" y="180" fill="#005500" opacity="0.55">6</text>
    <text x="902" y="198" fill="#005500" opacity="0.55">7</text>
    <text x="902" y="216" fill="#005500" opacity="0.55">テ</text>
  </g>
  <g class="c22" font-family="'Courier New',monospace" font-size="13" text-anchor="middle">
    <text x="944" y="0" fill="#e0ffe0">ウ</text>
    <text x="944" y="18" fill="#55ff55">ク</text>
    <text x="944" y="36" fill="#00dd00">ス</text>
    <text x="944" y="54" fill="#00dd00">ツ</text>
    <text x="944" y="72" fill="#00dd00">ヌ</text>
    <text x="944" y="90" fill="#009900">フ</text>
    <text x="944" y="108" fill="#009900">ム</text>
    <text x="944" y="126" fill="#009900">ロ</text>
    <text x="944" y="144" fill="#009900">3</text>
    <text x="944" y="162" fill="#005500">7</text>
    <text x="944" y="180" fill="#005500" opacity="0.55">コ</text>
    <text x="944" y="198" fill="#005500" opacity="0.55">セ</text>
    <text x="944" y="216" fill="#005500" opacity="0.55">ノ</text>
  </g>
  <g class="c23" font-family="'Courier New',monospace" font-size="13" text-anchor="middle">
    <text x="986" y="0" fill="#e0ffe0">エ</text>
    <text x="986" y="18" fill="#55ff55">ケ</text>
    <text x="986" y="36" fill="#00dd00">ネ</text>
    <text x="986" y="54" fill="#00dd00">ヘ</text>
    <text x="986" y="72" fill="#00dd00">メ</text>
    <text x="986" y="90" fill="#009900">レ</text>
    <text x="986" y="108" fill="#009900">2</text>
    <text x="986" y="126" fill="#009900">5</text>
    <text x="986" y="144" fill="#009900">8</text>
    <text x="986" y="162" fill="#005500">サ</text>
    <text x="986" y="180" fill="#005500" opacity="0.55">ナ</text>
    <text x="986" y="198" fill="#005500" opacity="0.55">ワ</text>
    <text x="986" y="216" fill="#005500" opacity="0.55">ア</text>
  </g>
</g>
<rect width="1000" height="180" fill="rgba(0,0,0,0.45)"/>
<text x="500" y="102" font-family="'Courier New',monospace" font-size="58" fill="#00ff00" text-anchor="middle" font-weight="bold" filter="url(#glow)" letter-spacing="6">THE MATRIX</text>
<text x="500" y="132" font-family="'Courier New',monospace" font-size="12" fill="#00cc00" text-anchor="middle" opacity="0.75" letter-spacing="2">governed agents · human gates · mandatory write-back</text>
</svg>
